<svg width="39" height="50" viewBox="0 0 39 50" fill="none" xmlns="http://www.w3.org/2000/svg">
<rect x="4.34375" y="0.289062" width="30.6057" height="38.6724" rx="15.3029" fill="#0E273D"/>
<rect x="9.55859" y="5.03125" width="20.1666" height="30.843" rx="10.0833" fill="#FAFAFB"/>
<path d="M0 24.1682C0 21.411 2.23519 19.1758 4.99243 19.1758H33.6446C36.4019 19.1758 38.637 21.411 38.637 24.1682V43.4867C38.637 46.8434 35.9159 49.5645 32.5593 49.5645H6.07773C2.72109 49.5645 0 46.8434 0 43.4867V24.1682Z" fill="#055491"/>
<path d="M13.2422 40.0287C13.2422 36.889 15.7874 34.3438 18.9271 34.3438H19.4956C22.6354 34.3438 25.1806 36.889 25.1806 40.0287V44.0082H13.2422V40.0287Z" fill="#FAFAFB"/>
<circle cx="19.3493" cy="29.7907" r="4.97434" fill="#FAFAFB"/>
</svg>
